<svg xmlns="http://www.w3.org/2000/svg" xmlns:xlink="http://www.w3.org/1999/xlink" width="10px" height="8px">
  <path fill-rule="evenodd"  fill="rgb(140, 186, 0)" d="M6.000,8.000 C5.653,8.000 5.321,7.942 5.000,7.859 L5.000,6.816 C5.314,6.928 5.647,7.000 6.000,7.000 C7.657,7.000 9.000,5.657 9.000,4.000 C9.000,2.343 7.657,1.000 6.000,1.000 C4.696,1.000 3.597,1.837 3.184,2.999 L4.983,2.999 L2.500,5.999 L0.016,2.999 L2.142,2.999 C2.588,1.277 4.139,-0.000 6.000,-0.000 C8.209,-0.000 10.000,1.791 10.000,4.000 C10.000,6.209 8.209,8.000 6.000,8.000 Z"/>
</svg>
