<svg xmlns="http://www.w3.org/2000/svg"  xmlns:xlink="http://www.w3.org/1999/xlink"  width="10px" height="10px">
  <path fill-rule="evenodd" fill="rgb(127, 152, 178)" d="M9.513,5.027 C9.513,5.027 6.574,5.027 5.594,5.027 C5.411,5.027 5.411,4.905 5.411,4.905 L5.411,2.768 C5.411,2.768 5.411,2.631 5.561,2.631 C6.549,2.631 9.513,2.631 9.513,2.631 C9.780,2.631 10.000,2.841 10.000,3.098 L10.000,4.559 C10.000,4.816 9.780,5.027 9.513,5.027 ZM7.683,2.234 C7.505,2.267 7.301,2.284 7.079,2.284 C7.079,2.284 7.079,2.284 7.079,2.284 C6.704,2.284 6.303,2.236 5.977,2.151 C5.496,2.025 5.236,1.833 5.181,1.566 C5.144,1.384 5.181,1.086 5.925,0.607 C6.363,0.325 6.854,0.114 7.238,0.042 C7.389,0.014 7.531,-0.001 7.660,-0.001 C8.271,-0.001 8.672,0.315 8.789,0.889 C8.855,1.216 8.804,1.499 8.636,1.728 C8.448,1.983 8.137,2.149 7.683,2.234 ZM8.023,1.032 C7.978,0.813 7.897,0.749 7.660,0.749 C7.581,0.749 7.489,0.759 7.387,0.778 C6.951,0.860 6.434,1.154 6.148,1.378 C6.122,1.392 6.134,1.415 6.148,1.418 C6.366,1.479 6.700,1.535 7.079,1.535 C7.249,1.535 7.406,1.522 7.534,1.498 C7.770,1.454 7.935,1.382 7.998,1.295 C8.013,1.275 8.059,1.212 8.023,1.032 ZM4.033,2.151 C3.708,2.236 3.307,2.284 2.932,2.284 C2.709,2.284 2.506,2.267 2.327,2.234 C1.874,2.149 1.562,1.983 1.375,1.728 C1.207,1.499 1.155,1.216 1.222,0.889 C1.338,0.315 1.739,-0.001 2.351,-0.001 C2.480,-0.001 2.622,0.014 2.773,0.042 C3.157,0.114 3.647,0.325 4.086,0.607 C4.830,1.086 4.867,1.384 4.830,1.566 C4.775,1.833 4.515,2.025 4.033,2.151 ZM2.623,0.778 C2.522,0.759 2.430,0.749 2.351,0.749 C2.114,0.749 2.033,0.813 1.988,1.032 C1.951,1.212 1.997,1.275 2.013,1.295 C2.076,1.382 2.241,1.454 2.477,1.498 C2.604,1.522 2.762,1.535 2.932,1.535 C3.306,1.535 3.636,1.480 3.855,1.420 C3.871,1.416 3.896,1.398 3.869,1.383 C3.583,1.159 3.060,0.860 2.623,0.778 ZM4.588,2.789 L4.588,4.902 C4.588,4.902 4.588,5.027 4.439,5.027 C3.462,5.027 0.487,5.027 0.487,5.027 C0.219,5.027 -0.000,4.816 -0.000,4.559 L-0.000,3.098 C-0.000,2.841 0.219,2.631 0.487,2.631 C0.487,2.631 3.449,2.631 4.425,2.631 C4.588,2.631 4.588,2.789 4.588,2.789 ZM1.037,5.552 C1.037,5.552 3.560,5.552 4.417,5.552 C4.588,5.552 4.588,5.711 4.588,5.711 L4.588,9.881 C4.588,9.881 4.588,9.999 4.474,9.999 C3.613,9.999 1.037,9.999 1.037,9.999 C0.769,9.999 0.550,9.789 0.550,9.531 L0.550,6.020 C0.550,5.763 0.769,5.552 1.037,5.552 ZM5.586,5.552 C6.430,5.552 8.963,5.552 8.963,5.552 C9.231,5.552 9.450,5.763 9.450,6.020 L9.450,9.531 C9.450,9.789 9.231,9.999 8.963,9.999 C8.963,9.999 6.390,9.999 5.533,9.999 C5.409,9.999 5.411,9.885 5.411,9.885 L5.411,5.758 C5.411,5.758 5.380,5.552 5.586,5.552 Z"/>
</svg>
