<svg xmlns="http://www.w3.org/2000/svg" width="10" height="10"><path fill-rule="evenodd" fill="#7F98B2" d="M9.513 5.027H5.594c-.183 0-.183-.122-.183-.122V2.768s0-.137.15-.137h3.952a.48.48 0 0 1 .487.467v1.461a.48.48 0 0 1-.487.468zm-1.83-2.793c-.178.033-.382.05-.604.05-.375 0-.776-.048-1.102-.133-.481-.126-.741-.318-.796-.585-.037-.182 0-.48.744-.959.438-.282.929-.493 1.313-.565a2.34 2.34 0 0 1 .422-.043c.611 0 1.012.316 1.129.89.066.327.015.61-.153.839-.188.255-.499.421-.953.506zm.34-1.202C7.978.813 7.897.749 7.66.749c-.079 0-.171.01-.273.029-.436.082-.953.376-1.239.6-.026.014-.014.037 0 .04.218.061.552.117.931.117.17 0 .327-.013.455-.037.236-.044.401-.116.464-.203.015-.02.061-.083.025-.263zm-3.99 1.119a4.55 4.55 0 0 1-1.101.133c-.223 0-.426-.017-.605-.05-.453-.085-.765-.251-.952-.506-.168-.229-.22-.512-.153-.839.116-.574.517-.89 1.129-.89.129 0 .271.015.422.043.384.072.874.283 1.313.565.744.479.781.777.744.959-.055.267-.315.459-.797.585zM2.623.778a1.503 1.503 0 0 0-.272-.029c-.237 0-.318.064-.363.283-.037.18.009.243.025.263.063.087.228.159.464.203.127.024.285.037.455.037.374 0 .704-.055.923-.115.016-.004.041-.022.014-.037C3.583 1.159 3.06.86 2.623.778zm1.965 2.011v2.113s0 .125-.149.125H.487A.48.48 0 0 1 0 4.559V3.098c0-.257.219-.467.487-.467h3.938c.163 0 .163.158.163.158zM1.037 5.552h3.38a.16.16 0 0 1 .171.159v4.17s0 .118-.114.118H1.037a.479.479 0 0 1-.487-.468V6.02a.48.48 0 0 1 .487-.468zm4.549 0h3.377a.48.48 0 0 1 .487.468v3.511a.479.479 0 0 1-.487.468h-3.43c-.124 0-.122-.114-.122-.114V5.758s-.031-.206.175-.206z"/></svg>